<svg width="560" height="560" xmlns="http://www.w3.org/2000/svg">

	<g>
		<title>AppIcon</title>
		<!--
		<ellipse ry="180" rx="180" id="svg_17" cy="370" cx="370" stroke-width="3" stroke="#000" fill="#fff"/>
		<ellipse ry="179.5" rx="179.5" id="svg_15" cy="189.3" cx="189.5" stroke-width="3" stroke="#000" fill="#fff"/>
		-->
		<rect stroke-width="3" id="svg_3" height="180" width="180" y="10" x="190" stroke="#000" fill="#fff"/>
		<rect stroke-width="3" id="svg_4" height="180" width="180" y="10" x="370" stroke="#000" fill="#fff"/>
		<rect stroke-width="3" id="svg_5" height="180" width="180" y="190" x="10" stroke="#000" fill="#fff"/>
		<rect stroke-width="3" id="svg_6" height="180" width="180" y="190" x="190" stroke="#000" fill="#fff"/>
		<rect stroke-width="3" id="svg_8" height="180" width="180" y="370" x="10" stroke="#000" fill="#fff"/>
		<rect stroke-width="3" id="svg_9" height="180" width="180" y="190" x="370" stroke="#000" fill="#fff"/>
		<rect stroke-width="3" id="svg_10" height="180" width="180" y="370" x="190" stroke="#000" fill="#fff"/>
		<!--<ellipse rx="1" id="svg_16" cy="214.8" cx="784" stroke-width="3" stroke="#000" fill="#fff"/>-->
		<path id="svg_18" d="m433.51808,298.08093l-20.5463,-12.91394c-5.1839,-3.25503 -12.01458,-1.68838 -15.28097,3.49659l-8.09846,12.88984l39.30594,24.68719l8.10485,-12.88386c3.25399,-5.19115 1.70098,-12.02805 -3.48506,-15.27583l0,0zm-113.87078,114.83484l39.30808,24.68693l64.06566,-101.98738l-39.32679,-24.69338l-64.04695,101.99382l0.00001,0.00001zm-6.0043,31.36567l-0.86817,23.18801l20.51478,-10.85093l19.06406,-10.06577l-37.92177,-23.83134l-0.78889,21.56004l0,0l-0.00001,-0.00001z" stroke-width="6" stroke="#000" fill="#fff"/>
	</g>

</svg>